<?xml version="1.0" encoding="UTF-8"?><svg id="Layer_1" xmlns="http://www.w3.org/2000/svg" viewBox="0 0 361.62 252.69"><defs><style>.cls-1{fill:#8f000b;}.cls-2{fill:#262262;}.cls-3{stroke:#8f000b;}.cls-3,.cls-4{fill:none;stroke-miterlimit:10;stroke-width:5px;}.cls-4{stroke:#262262;}</style></defs><path class="cls-3" d="M182.17,69.57C141.09,14.3,119.14,30.26,119.14,0"/><path class="cls-3" d="M202.66,96.49c-1.96-2.75-3.96-5.48-5.96-8.15"/><g><path class="cls-3" d="M162.54,189.16c88.06,16.31,80.33-27.29,53.33-72.15"/><polygon class="cls-1" points="146.99 185.88 167.07 199.36 163.71 189.33 170.76 181.44 146.99 185.88"/></g><g><path class="cls-4" d="M118.47,242.63c133.03,21.65,156.26-47.85,243.09-49.98"/><polygon class="cls-2" points="102.85 239.76 123.28 252.69 119.66 242.76 126.49 234.68 102.85 239.76"/></g><g><path class="cls-3" d="M19.28,176.25c19.35,18.91,22.4-6.21,16.06-21.42"/><polygon class="cls-1" points="9.07 164.07 16.73 187.01 20.2 177.02 30.6 175.08 9.07 164.07"/></g><path class="cls-3" d="M29.69,103.8c-2.66-24.04-5.99-39.19-28.57-50.46"/></svg>