<?xml version="1.0" encoding="UTF-8"?><svg id="Layer_1" xmlns="http://www.w3.org/2000/svg" viewBox="0 0 337.25 482.13"><defs><style>.cls-1{letter-spacing:.01em;}.cls-2{letter-spacing:.01em;}.cls-3{stroke:#262262;}.cls-3,.cls-4,.cls-5{stroke-width:3px;}.cls-3,.cls-4,.cls-5,.cls-6,.cls-7{fill:none;stroke-miterlimit:10;}.cls-3,.cls-4,.cls-7{stroke-linecap:round;}.cls-4,.cls-5,.cls-6,.cls-7{stroke:#8f000b;}.cls-8{letter-spacing:0em;}.cls-9{letter-spacing:-.06em;}.cls-10,.cls-11,.cls-12{fill:#8f000b;}.cls-13{letter-spacing:-.02em;}.cls-11{font-size:18px;}.cls-11,.cls-12,.cls-14{font-family:MyriadPro-BoldSemiCn, 'Myriad Pro';}.cls-15{letter-spacing:0em;}.cls-6,.cls-7{stroke-width:5px;}.cls-16{letter-spacing:0em;}.cls-17{letter-spacing:0em;}.cls-18{letter-spacing:0em;}.cls-12,.cls-14{font-size:8px;}.cls-14{fill:#262262;}</style></defs><g><path class="cls-7" d="M20,169.83c-26.64-39.07-.04-111.91-.04-111.91"/><polygon class="cls-10" points="30.89 181.4 22.7 158.64 19.46 168.71 9.11 170.89 30.89 181.4"/></g><g><path class="cls-7" d="M58.54,146.98c-2.67-32.88-31.73-24.12-38.57-89.06"/><polygon class="cls-10" points="58.05 162.86 67.54 140.62 58.31 145.79 49.25 140.34 58.05 162.86"/></g><g><path class="cls-7" d="M123.99,268.41c175.24-51.18,195.99,125.32,195.99,125.32"/><polygon class="cls-10" points="108.87 273.27 132.97 275.22 125.14 268.11 127.44 257.78 108.87 273.27"/></g><g><path class="cls-7" d="M154.3,417.89c55.65,47.9,99.53-20.94,165.69-24.16"/><polygon class="cls-10" points="143.01 406.71 152.73 428.85 155.27 418.59 165.45 415.71 143.01 406.71"/></g><g><path class="cls-6" d="M63.9,434.35c31.13,14.96,83.19,19.32,81.65-10.67"/><polygon class="cls-10" points="50.35 426.04 64.96 445.31 65.05 434.73 74.27 429.57 50.35 426.04"/></g><g><g><rect class="cls-4" x="3.48" y="8.48" width="35.18" height="23.46"/><line class="cls-4" x1="3.48" y1="8.48" x2="38.67" y2="31.94"/><line class="cls-4" x1="38.67" y1="8.48" x2="3.48" y2="31.94"/></g><line class="cls-5" x1="21.08" x2="21.08" y2="6.98"/><line class="cls-5" x1="14.73" x2="14.73" y2="6.98"/><line class="cls-5" x1="27.37" x2="27.37" y2="6.98"/><text class="cls-11" transform="translate(43.74 26.04)"><tspan x="0" y="0">2</tspan></text><text class="cls-12" transform="translate(0 41.18)"><tspan class="cls-9" x="0" y="0">T</tspan><tspan x="3.52" y="0">ANA</tspan><tspan class="cls-2" x="18.18" y="0">K</tspan><tspan x="22.82" y="0">A D</tspan><tspan class="cls-15" x="34.18" y="0">E</tspan><tspan class="cls-18" x="38.14" y="0">T</tspan><tspan class="cls-2" x="3.95" y="9.6">K</tspan><tspan class="cls-18" x="8.59" y="9.6">ANO D</tspan><tspan class="cls-17" x="30.23" y="9.6">E</tspan><tspan x="34.19" y="9.6">T</tspan></text></g><g><g><rect class="cls-4" x="125.84" y="220.61" width="35.18" height="23.46"/><line class="cls-4" x1="125.84" y1="220.61" x2="161.03" y2="244.06"/><line class="cls-4" x1="161.03" y1="220.61" x2="125.84" y2="244.06"/></g><line class="cls-5" x1="143.44" y1="212.13" x2="143.44" y2="219.11"/><line class="cls-5" x1="137.1" y1="212.13" x2="137.1" y2="219.11"/><line class="cls-5" x1="149.73" y1="212.13" x2="149.73" y2="219.11"/><text class="cls-11" transform="translate(165.26 239.17)"><tspan x="0" y="0">33(-)</tspan></text><text class="cls-12" transform="translate(122.51 253.31)"><tspan x="0" y="0">KIMU</tspan><tspan class="cls-8" x="18.02" y="0">R</tspan><tspan x="22.52" y="0">A D</tspan><tspan class="cls-17" x="33.89" y="0">E</tspan><tspan x="37.85" y="0">T</tspan></text></g><g><g><rect class="cls-4" x="269.97" y="419.56" width="35.18" height="23.46"/><line class="cls-4" x1="269.97" y1="419.56" x2="305.16" y2="443.02"/><line class="cls-4" x1="305.16" y1="419.56" x2="269.97" y2="443.02"/></g><line class="cls-5" x1="287.57" y1="411.08" x2="287.57" y2="418.07"/><line class="cls-5" x1="281.22" y1="411.08" x2="281.22" y2="418.07"/><line class="cls-5" x1="293.86" y1="411.08" x2="293.86" y2="418.07"/><text class="cls-11" transform="translate(309.39 438.12)"><tspan x="0" y="0">146</tspan></text><text class="cls-12" transform="translate(260.53 452.26)"><tspan x="0" y="0">SA</tspan><tspan class="cls-1" x="8.74" y="0">K</tspan><tspan class="cls-13" x="13.38" y="0">A</tspan><tspan x="17.98" y="0">GUCHI D</tspan><tspan class="cls-17" x="46.11" y="0">E</tspan><tspan x="50.07" y="0">T</tspan></text></g><g><g><rect class="cls-4" x="202.58" y="447.43" width="35.18" height="23.46"/><line class="cls-4" x1="202.58" y1="447.43" x2="237.76" y2="470.89"/><line class="cls-4" x1="237.76" y1="447.43" x2="202.58" y2="470.89"/></g><text class="cls-11" transform="translate(241.99 466)"><tspan x="0" y="0">33</tspan></text><text class="cls-12" transform="translate(201.51 480.13)"><tspan x="0" y="0">MIU</tspan><tspan class="cls-16" x="13.47" y="0">R</tspan><tspan x="17.98" y="0">A D</tspan><tspan class="cls-15" x="29.34" y="0">E</tspan><tspan class="cls-18" x="33.3" y="0">T</tspan></text><line class="cls-5" x1="217.02" y1="438.95" x2="217.02" y2="445.94"/><line class="cls-5" x1="223.32" y1="438.95" x2="223.32" y2="445.94"/><text class="cls-11" transform="translate(188.26 466.18)"><tspan x="0" y="0">1</tspan></text></g><g><g><rect class="cls-3" x="64.12" y="281.75" width="35.18" height="23.46"/><line class="cls-3" x1="64.12" y1="281.75" x2="99.3" y2="305.21"/><line class="cls-3" x1="99.3" y1="281.75" x2="64.12" y2="305.21"/></g><text class="cls-14" transform="translate(68.97 314.45)"><tspan x="0" y="0">USAFFE</tspan></text></g></svg>