<?xml version="1.0" encoding="UTF-8"?><svg id="Layer_1" xmlns="http://www.w3.org/2000/svg" viewBox="0 0 3110.02 2365.29"><defs><style>.cls-1{fill:#8f000b;}</style></defs><path class="cls-1" d="M2934.31,544.68c-57.5-16.75-273.43-35.17-1231.94-97.07v-.14h-.17s6.7-149.16,1.68-241.33c-5.03-92.18-58.08-70.08-58.08-70.08l-28.99-.03c.42-20.4,.13-136.03-60.72-136.03s-63,115.63-62.9,136.03l-28.93,.03s-53.06-22.09-58.09,70.08c-5.03,92.18,1.68,241.33,1.68,241.33h.17v.11c-958.81,61.92-1174.78,80.34-1232.28,97.09C175.71,544.68-.3,593.28,0,703.89c.3,110.61,118.49,165.69,175.71,182.12,24.12,15.4,313.97,67.99,605.44,118.99-.4,4.63,2.79,8.9,7.45,9.69l62.06,10.5c4.52,.76,8.81-2.02,10.11-6.3,240.7,41.89,465.87,80.25,523.84,92.81,2.23,.48,4.35,1.02,6.52,1.53l-.04,.07s21.92,34.14,33.09,67.66c11.17,33.52,24.58,475.96,44.69,551.94,.35,.12,.68,.23,1.02,.35,.22,5.77,.48,11.63,.76,17.53h-2.11l-439.31,156.42s-83.8,27.93-81.56,81.56c2.23,53.63,59.22,79.33,88.27,82.68,29.05,3.35,432.6,53.63,432.6,53.63,0,0,21.3-7.69,45.18,21.29,.51,.62,1.02,.96,1.52,1.17,14.72,93.24,29.48,170.38,38.46,207.4,0,3.45-.01,6.91-.02,10.35,.42-1.55,.87-3.28,1.33-5.08,.46,1.81,.91,3.53,1.33,5.08,0-3.44-.01-6.89-.02-10.35,8.98-37.02,23.74-114.17,38.46-207.4,.5-.21,1.01-.55,1.52-1.17,23.88-28.98,45.18-21.29,45.18-21.29,0,0,403.55-50.28,432.6-53.63,29.05-3.35,86.03-29.05,88.27-82.68,2.23-53.63-81.56-81.56-81.56-81.56l-439.31-156.42h-2.11c.28-5.9,.54-11.76,.76-17.53,.34-.12,.67-.22,1.02-.35,20.11-75.98,33.52-518.42,44.69-551.94,11.17-33.52,33.09-67.66,33.09-67.66h.17v-.12c2.1-.5,4.15-1.02,6.31-1.49,57.97-12.56,283.15-50.92,523.84-92.81,1.3,4.27,5.59,7.06,10.11,6.3l62.06-10.5c4.66-.79,7.85-5.06,7.45-9.69,291.47-51.01,581.32-103.59,605.44-118.99,57.22-16.43,175.41-71.51,175.71-182.12,.3-110.61-175.71-159.21-175.71-159.21Z"/></svg>